<mxfile host="app.diagrams.net" modified="2022-03-31T22:13:28.997Z" agent="5.0 (Windows NT 10.0; Win64; x64) AppleWebKit/537.36 (KHTML, like Gecko) Chrome/101.0.0.0 Safari/537.36" etag="2rSXznfeTcXh3gJHE4kE" version="17.4.0" type="github">
  <diagram id="C5RBs43oDa-KdzZeNtuy" name="Page-1">
    <mxGraphModel dx="3743" dy="2276" grid="1" gridSize="10" guides="1" tooltips="1" connect="1" arrows="1" fold="1" page="1" pageScale="1" pageWidth="1169" pageHeight="827" math="0" shadow="0">
      <root>
        <mxCell id="WIyWlLk6GJQsqaUBKTNV-0" />
        <mxCell id="WIyWlLk6GJQsqaUBKTNV-1" parent="WIyWlLk6GJQsqaUBKTNV-0" />
        <mxCell id="2c-yum_lAbNcvrNoENY4-150" style="edgeStyle=orthogonalEdgeStyle;rounded=0;orthogonalLoop=1;jettySize=auto;html=1;entryX=0.996;entryY=0.353;entryDx=0;entryDy=0;entryPerimeter=0;fontSize=11;startArrow=none;startFill=0;endArrow=diamondThin;endFill=0;startSize=12;endSize=11;targetPerimeterSpacing=0;strokeColor=default;strokeWidth=1;" parent="WIyWlLk6GJQsqaUBKTNV-1" source="zkfFHV4jXpPFQw0GAbJ--0" target="2c-yum_lAbNcvrNoENY4-104" edge="1">
          <mxGeometry relative="1" as="geometry" />
        </mxCell>
        <mxCell id="zkfFHV4jXpPFQw0GAbJ--0" value="Trail" style="swimlane;fontStyle=1;align=center;verticalAlign=top;childLayout=stackLayout;horizontal=1;startSize=26;horizontalStack=0;resizeParent=1;resizeLast=0;collapsible=1;marginBottom=0;rounded=0;shadow=0;strokeWidth=1;" parent="WIyWlLk6GJQsqaUBKTNV-1" vertex="1">
          <mxGeometry x="730" y="-550" width="160" height="210" as="geometry">
            <mxRectangle x="230" y="140" width="160" height="26" as="alternateBounds" />
          </mxGeometry>
        </mxCell>
        <mxCell id="zkfFHV4jXpPFQw0GAbJ--3" value="- location: String&#xa;- trailhead: String&#xa;- elevation: int &#xa;- elevationGain: int &#xa;- length: int &#xa;- permitId: int " style="text;align=left;verticalAlign=top;spacingLeft=4;spacingRight=4;overflow=hidden;rotatable=0;points=[[0,0.5],[1,0.5]];portConstraint=eastwest;rounded=0;shadow=0;html=0;fontSize=11;" parent="zkfFHV4jXpPFQw0GAbJ--0" vertex="1">
          <mxGeometry y="26" width="160" height="84" as="geometry" />
        </mxCell>
        <mxCell id="2c-yum_lAbNcvrNoENY4-101" value="" style="line;html=1;strokeWidth=1;align=left;verticalAlign=middle;spacingTop=-1;spacingLeft=3;spacingRight=3;rotatable=0;labelPosition=right;points=[];portConstraint=eastwest;" parent="zkfFHV4jXpPFQw0GAbJ--0" vertex="1">
          <mxGeometry y="110" width="160" height="8" as="geometry" />
        </mxCell>
        <mxCell id="2c-yum_lAbNcvrNoENY4-102" value="+ isOpen(): boolean  &#xa;+ requiresPermit(): boolean &#xa;- permitsAllotted(): int " style="text;align=left;verticalAlign=top;spacingLeft=4;spacingRight=4;overflow=hidden;rotatable=0;points=[[0,0.5],[1,0.5]];portConstraint=eastwest;rounded=0;shadow=0;html=0;fontSize=11;" parent="zkfFHV4jXpPFQw0GAbJ--0" vertex="1">
          <mxGeometry y="118" width="160" height="92" as="geometry" />
        </mxCell>
        <mxCell id="2c-yum_lAbNcvrNoENY4-103" value="Park" style="swimlane;fontStyle=1;align=center;verticalAlign=top;childLayout=stackLayout;horizontal=1;startSize=26;horizontalStack=0;resizeParent=1;resizeLast=0;collapsible=1;marginBottom=0;rounded=0;shadow=0;strokeWidth=1;" parent="WIyWlLk6GJQsqaUBKTNV-1" vertex="1">
          <mxGeometry x="-70" y="-500" width="170" height="210" as="geometry">
            <mxRectangle x="230" y="140" width="160" height="26" as="alternateBounds" />
          </mxGeometry>
        </mxCell>
        <mxCell id="2c-yum_lAbNcvrNoENY4-104" value="- name: String&#xa;- location: String&#xa;- established: date &#xa;- area : int &#xa;- phone : String&#xa;- entranceFee: int " style="text;align=left;verticalAlign=top;spacingLeft=4;spacingRight=4;overflow=hidden;rotatable=0;points=[[0,0.5],[1,0.5]];portConstraint=eastwest;rounded=0;shadow=0;html=0;fontSize=11;" parent="2c-yum_lAbNcvrNoENY4-103" vertex="1">
          <mxGeometry y="26" width="170" height="84" as="geometry" />
        </mxCell>
        <mxCell id="2c-yum_lAbNcvrNoENY4-105" value="" style="line;html=1;strokeWidth=1;align=left;verticalAlign=middle;spacingTop=-1;spacingLeft=3;spacingRight=3;rotatable=0;labelPosition=right;points=[];portConstraint=eastwest;" parent="2c-yum_lAbNcvrNoENY4-103" vertex="1">
          <mxGeometry y="110" width="170" height="8" as="geometry" />
        </mxCell>
        <mxCell id="2c-yum_lAbNcvrNoENY4-106" value="+ checkClosure(String): boolean &#xa;+ checkEntry(int, String): boolean &#xa;+ checkReservation(): boolean &#xa;+ runPermitLottery(): String" style="text;align=left;verticalAlign=top;spacingLeft=4;spacingRight=4;overflow=hidden;rotatable=0;points=[[0,0.5],[1,0.5]];portConstraint=eastwest;rounded=0;shadow=0;html=0;fontSize=11;" parent="2c-yum_lAbNcvrNoENY4-103" vertex="1">
          <mxGeometry y="118" width="170" height="92" as="geometry" />
        </mxCell>
        <mxCell id="O42WBwluvv-HjwbEkJu6-36" style="edgeStyle=orthogonalEdgeStyle;rounded=0;orthogonalLoop=1;jettySize=auto;html=1;endArrow=none;endFill=0;startSize=12;endSize=11;startArrow=block;startFill=0;exitX=0.5;exitY=1;exitDx=0;exitDy=0;exitPerimeter=0;" edge="1" parent="WIyWlLk6GJQsqaUBKTNV-1" source="2c-yum_lAbNcvrNoENY4-110">
          <mxGeometry relative="1" as="geometry">
            <mxPoint x="140" y="473" as="targetPoint" />
            <mxPoint x="140" y="243" as="sourcePoint" />
          </mxGeometry>
        </mxCell>
        <mxCell id="O42WBwluvv-HjwbEkJu6-39" style="edgeStyle=orthogonalEdgeStyle;rounded=0;orthogonalLoop=1;jettySize=auto;html=1;entryX=0.438;entryY=1;entryDx=0;entryDy=0;entryPerimeter=0;startArrow=none;startFill=0;endArrow=block;endFill=0;startSize=12;endSize=11;" edge="1" parent="WIyWlLk6GJQsqaUBKTNV-1" source="2c-yum_lAbNcvrNoENY4-107" target="O42WBwluvv-HjwbEkJu6-11">
          <mxGeometry relative="1" as="geometry" />
        </mxCell>
        <mxCell id="O42WBwluvv-HjwbEkJu6-74" style="edgeStyle=orthogonalEdgeStyle;rounded=0;orthogonalLoop=1;jettySize=auto;html=1;entryX=0.765;entryY=1;entryDx=0;entryDy=0;entryPerimeter=0;startArrow=none;startFill=0;endArrow=none;endFill=0;startSize=12;endSize=11;" edge="1" parent="WIyWlLk6GJQsqaUBKTNV-1" source="2c-yum_lAbNcvrNoENY4-107" target="2c-yum_lAbNcvrNoENY4-106">
          <mxGeometry relative="1" as="geometry">
            <Array as="points">
              <mxPoint x="160" y="-130" />
              <mxPoint x="60" y="-130" />
            </Array>
          </mxGeometry>
        </mxCell>
        <mxCell id="2c-yum_lAbNcvrNoENY4-107" value="Employee" style="swimlane;fontStyle=1;align=center;verticalAlign=top;childLayout=stackLayout;horizontal=1;startSize=26;horizontalStack=0;resizeParent=1;resizeLast=0;collapsible=1;marginBottom=0;rounded=0;shadow=0;strokeWidth=1;" parent="WIyWlLk6GJQsqaUBKTNV-1" vertex="1">
          <mxGeometry x="30" y="30" width="220" height="210" as="geometry">
            <mxRectangle x="230" y="140" width="160" height="26" as="alternateBounds" />
          </mxGeometry>
        </mxCell>
        <mxCell id="2c-yum_lAbNcvrNoENY4-108" value="- id: int &#xa;- exemptionStatus: String &#xa;- payRate: double &#xa;- hoursWorked: double " style="text;align=left;verticalAlign=top;spacingLeft=4;spacingRight=4;overflow=hidden;rotatable=0;points=[[0,0.5],[1,0.5]];portConstraint=eastwest;rounded=0;shadow=0;html=0;fontSize=11;" parent="2c-yum_lAbNcvrNoENY4-107" vertex="1">
          <mxGeometry y="26" width="220" height="84" as="geometry" />
        </mxCell>
        <mxCell id="2c-yum_lAbNcvrNoENY4-109" value="" style="line;html=1;strokeWidth=1;align=left;verticalAlign=middle;spacingTop=-1;spacingLeft=3;spacingRight=3;rotatable=0;labelPosition=right;points=[];portConstraint=eastwest;" parent="2c-yum_lAbNcvrNoENY4-107" vertex="1">
          <mxGeometry y="110" width="220" height="8" as="geometry" />
        </mxCell>
        <mxCell id="2c-yum_lAbNcvrNoENY4-110" value="- calculatePay(double, double): double &#xa;- determineBenefits(String, double): double &#xa;- determineSchedule(int): boolean " style="text;align=left;verticalAlign=top;spacingLeft=4;spacingRight=4;overflow=hidden;rotatable=0;points=[[0,0.5],[1,0.5]];portConstraint=eastwest;rounded=0;shadow=0;html=0;fontSize=11;" parent="2c-yum_lAbNcvrNoENY4-107" vertex="1">
          <mxGeometry y="118" width="220" height="92" as="geometry" />
        </mxCell>
        <mxCell id="2c-yum_lAbNcvrNoENY4-141" style="edgeStyle=orthogonalEdgeStyle;rounded=0;orthogonalLoop=1;jettySize=auto;html=1;fontSize=11;startArrow=none;startFill=0;endArrow=diamondThin;endFill=0;startSize=12;endSize=11;targetPerimeterSpacing=0;strokeColor=default;exitX=0.5;exitY=0;exitDx=0;exitDy=0;entryX=1.025;entryY=0.748;entryDx=0;entryDy=0;entryPerimeter=0;" parent="WIyWlLk6GJQsqaUBKTNV-1" edge="1">
          <mxGeometry relative="1" as="geometry">
            <mxPoint x="719" y="-231" as="sourcePoint" />
            <mxPoint x="99.25" y="-313.18399999999997" as="targetPoint" />
            <Array as="points">
              <mxPoint x="719" y="-313" />
            </Array>
          </mxGeometry>
        </mxCell>
        <mxCell id="O42WBwluvv-HjwbEkJu6-56" style="edgeStyle=orthogonalEdgeStyle;rounded=0;orthogonalLoop=1;jettySize=auto;html=1;startArrow=block;startFill=0;endArrow=none;endFill=0;startSize=12;endSize=11;entryX=0.477;entryY=0.008;entryDx=0;entryDy=0;entryPerimeter=0;" edge="1" parent="WIyWlLk6GJQsqaUBKTNV-1" source="2c-yum_lAbNcvrNoENY4-111" target="O42WBwluvv-HjwbEkJu6-46">
          <mxGeometry relative="1" as="geometry">
            <mxPoint x="720" y="120" as="targetPoint" />
          </mxGeometry>
        </mxCell>
        <mxCell id="2c-yum_lAbNcvrNoENY4-111" value="Lodging" style="swimlane;fontStyle=1;align=center;verticalAlign=top;childLayout=stackLayout;horizontal=1;startSize=26;horizontalStack=0;resizeParent=1;resizeLast=0;collapsible=1;marginBottom=0;rounded=0;shadow=0;strokeWidth=1;" parent="WIyWlLk6GJQsqaUBKTNV-1" vertex="1">
          <mxGeometry x="588.5" y="-231" width="263" height="210" as="geometry">
            <mxRectangle x="230" y="140" width="160" height="26" as="alternateBounds" />
          </mxGeometry>
        </mxCell>
        <mxCell id="2c-yum_lAbNcvrNoENY4-112" value="- location: String&#xa;- units: int&#xa;- hoursOfOperation: String&#xa; " style="text;align=left;verticalAlign=top;spacingLeft=4;spacingRight=4;overflow=hidden;rotatable=0;points=[[0,0.5],[1,0.5]];portConstraint=eastwest;rounded=0;shadow=0;html=0;fontSize=11;" parent="2c-yum_lAbNcvrNoENY4-111" vertex="1">
          <mxGeometry y="26" width="263" height="84" as="geometry" />
        </mxCell>
        <mxCell id="2c-yum_lAbNcvrNoENY4-113" value="" style="line;html=1;strokeWidth=1;align=left;verticalAlign=middle;spacingTop=-1;spacingLeft=3;spacingRight=3;rotatable=0;labelPosition=right;points=[];portConstraint=eastwest;" parent="2c-yum_lAbNcvrNoENY4-111" vertex="1">
          <mxGeometry y="110" width="263" height="8" as="geometry" />
        </mxCell>
        <mxCell id="2c-yum_lAbNcvrNoENY4-114" value="+ checkAvailability(int): boolean &#xa;+ reserveLodging(int): String&#xa;+ validatePromo(String): double &#xa;- calculateTotal(double, double, double, int): double &#xa;- processPayment(): int  " style="text;align=left;verticalAlign=top;spacingLeft=4;spacingRight=4;overflow=hidden;rotatable=0;points=[[0,0.5],[1,0.5]];portConstraint=eastwest;rounded=0;shadow=0;html=0;fontSize=11;" parent="2c-yum_lAbNcvrNoENY4-111" vertex="1">
          <mxGeometry y="118" width="263" height="82" as="geometry" />
        </mxCell>
        <mxCell id="O42WBwluvv-HjwbEkJu6-58" style="edgeStyle=orthogonalEdgeStyle;rounded=0;orthogonalLoop=1;jettySize=auto;html=1;entryX=0.5;entryY=0;entryDx=0;entryDy=0;startArrow=none;startFill=0;endArrow=none;endFill=0;startSize=12;endSize=11;" edge="1" parent="WIyWlLk6GJQsqaUBKTNV-1" source="2c-yum_lAbNcvrNoENY4-115" target="2c-yum_lAbNcvrNoENY4-107">
          <mxGeometry relative="1" as="geometry">
            <Array as="points">
              <mxPoint x="-250" y="-20" />
              <mxPoint x="140" y="-20" />
            </Array>
          </mxGeometry>
        </mxCell>
        <mxCell id="O42WBwluvv-HjwbEkJu6-78" style="edgeStyle=orthogonalEdgeStyle;rounded=0;orthogonalLoop=1;jettySize=auto;html=1;entryX=0;entryY=0.5;entryDx=0;entryDy=0;startArrow=none;startFill=0;endArrow=none;endFill=0;startSize=12;endSize=11;" edge="1" parent="WIyWlLk6GJQsqaUBKTNV-1" source="2c-yum_lAbNcvrNoENY4-115" target="2c-yum_lAbNcvrNoENY4-106">
          <mxGeometry relative="1" as="geometry">
            <Array as="points">
              <mxPoint x="-290" y="-336" />
            </Array>
          </mxGeometry>
        </mxCell>
        <mxCell id="2c-yum_lAbNcvrNoENY4-115" value="Visitor" style="swimlane;fontStyle=1;align=center;verticalAlign=top;childLayout=stackLayout;horizontal=1;startSize=26;horizontalStack=0;resizeParent=1;resizeLast=0;collapsible=1;marginBottom=0;rounded=0;shadow=0;strokeWidth=1;" parent="WIyWlLk6GJQsqaUBKTNV-1" vertex="1">
          <mxGeometry x="-360" y="30" width="220" height="210" as="geometry">
            <mxRectangle x="230" y="140" width="160" height="26" as="alternateBounds" />
          </mxGeometry>
        </mxCell>
        <mxCell id="2c-yum_lAbNcvrNoENY4-116" value="- birthdate: date &#xa;- email: String&#xa;- homeAddress: String&#xa;- mobile: String" style="text;align=left;verticalAlign=top;spacingLeft=4;spacingRight=4;overflow=hidden;rotatable=0;points=[[0,0.5],[1,0.5]];portConstraint=eastwest;rounded=0;shadow=0;html=0;fontSize=11;" parent="2c-yum_lAbNcvrNoENY4-115" vertex="1">
          <mxGeometry y="26" width="220" height="84" as="geometry" />
        </mxCell>
        <mxCell id="2c-yum_lAbNcvrNoENY4-117" value="" style="line;html=1;strokeWidth=1;align=left;verticalAlign=middle;spacingTop=-1;spacingLeft=3;spacingRight=3;rotatable=0;labelPosition=right;points=[];portConstraint=eastwest;" parent="2c-yum_lAbNcvrNoENY4-115" vertex="1">
          <mxGeometry y="110" width="220" height="8" as="geometry" />
        </mxCell>
        <mxCell id="2c-yum_lAbNcvrNoENY4-118" value="+ visitAttraction(String): boolean &#xa;+ doesActivity(String): boolean &#xa;+ determineOvernight(String, String): void &#xa;+ checkoutDate(object): date " style="text;align=left;verticalAlign=top;spacingLeft=4;spacingRight=4;overflow=hidden;rotatable=0;points=[[0,0.5],[1,0.5]];portConstraint=eastwest;rounded=0;shadow=0;html=0;fontSize=11;" parent="2c-yum_lAbNcvrNoENY4-115" vertex="1">
          <mxGeometry y="118" width="220" height="92" as="geometry" />
        </mxCell>
        <mxCell id="O42WBwluvv-HjwbEkJu6-19" style="edgeStyle=orthogonalEdgeStyle;rounded=0;orthogonalLoop=1;jettySize=auto;html=1;entryX=0.455;entryY=1;entryDx=0;entryDy=0;entryPerimeter=0;endArrow=none;endFill=0;startSize=12;endSize=11;" edge="1" parent="WIyWlLk6GJQsqaUBKTNV-1" source="2c-yum_lAbNcvrNoENY4-119" target="2c-yum_lAbNcvrNoENY4-118">
          <mxGeometry relative="1" as="geometry" />
        </mxCell>
        <mxCell id="O42WBwluvv-HjwbEkJu6-60" style="edgeStyle=orthogonalEdgeStyle;rounded=0;orthogonalLoop=1;jettySize=auto;html=1;startArrow=block;startFill=0;endArrow=none;endFill=0;startSize=12;endSize=11;" edge="1" parent="WIyWlLk6GJQsqaUBKTNV-1" source="2c-yum_lAbNcvrNoENY4-119">
          <mxGeometry relative="1" as="geometry">
            <mxPoint x="-260" y="590" as="targetPoint" />
          </mxGeometry>
        </mxCell>
        <mxCell id="2c-yum_lAbNcvrNoENY4-119" value="Ticket" style="swimlane;fontStyle=1;align=center;verticalAlign=top;childLayout=stackLayout;horizontal=1;startSize=26;horizontalStack=0;resizeParent=1;resizeLast=0;collapsible=1;marginBottom=0;rounded=0;shadow=0;strokeWidth=1;" parent="WIyWlLk6GJQsqaUBKTNV-1" vertex="1">
          <mxGeometry x="-340" y="414" width="160" height="145" as="geometry">
            <mxRectangle x="230" y="140" width="160" height="26" as="alternateBounds" />
          </mxGeometry>
        </mxCell>
        <mxCell id="2c-yum_lAbNcvrNoENY4-120" value="- id: int &#xa;- date: date &#xa;- cost: int " style="text;align=left;verticalAlign=top;spacingLeft=4;spacingRight=4;overflow=hidden;rotatable=0;points=[[0,0.5],[1,0.5]];portConstraint=eastwest;rounded=0;shadow=0;html=0;fontSize=11;" parent="2c-yum_lAbNcvrNoENY4-119" vertex="1">
          <mxGeometry y="26" width="160" height="56" as="geometry" />
        </mxCell>
        <mxCell id="2c-yum_lAbNcvrNoENY4-121" value="" style="line;html=1;strokeWidth=1;align=left;verticalAlign=middle;spacingTop=-1;spacingLeft=3;spacingRight=3;rotatable=0;labelPosition=right;points=[];portConstraint=eastwest;" parent="2c-yum_lAbNcvrNoENY4-119" vertex="1">
          <mxGeometry y="82" width="160" height="8" as="geometry" />
        </mxCell>
        <mxCell id="O42WBwluvv-HjwbEkJu6-35" style="edgeStyle=orthogonalEdgeStyle;rounded=0;orthogonalLoop=1;jettySize=auto;html=1;entryX=0;entryY=0.772;entryDx=0;entryDy=0;entryPerimeter=0;endArrow=none;endFill=0;startSize=12;endSize=11;" edge="1" parent="WIyWlLk6GJQsqaUBKTNV-1" source="2c-yum_lAbNcvrNoENY4-123" target="O42WBwluvv-HjwbEkJu6-21">
          <mxGeometry relative="1" as="geometry" />
        </mxCell>
        <mxCell id="2c-yum_lAbNcvrNoENY4-123" value="Ranger" style="swimlane;fontStyle=1;align=center;verticalAlign=top;childLayout=stackLayout;horizontal=1;startSize=26;horizontalStack=0;resizeParent=1;resizeLast=0;collapsible=1;marginBottom=0;rounded=0;shadow=0;strokeWidth=1;" parent="WIyWlLk6GJQsqaUBKTNV-1" vertex="1">
          <mxGeometry x="-80" y="275.5" width="190" height="104.5" as="geometry">
            <mxRectangle x="230" y="140" width="160" height="26" as="alternateBounds" />
          </mxGeometry>
        </mxCell>
        <mxCell id="2c-yum_lAbNcvrNoENY4-124" value="- badgeNumber: int &#xa;- discipline: String" style="text;align=left;verticalAlign=top;spacingLeft=4;spacingRight=4;overflow=hidden;rotatable=0;points=[[0,0.5],[1,0.5]];portConstraint=eastwest;rounded=0;shadow=0;html=0;fontSize=11;" parent="2c-yum_lAbNcvrNoENY4-123" vertex="1">
          <mxGeometry y="26" width="190" height="34" as="geometry" />
        </mxCell>
        <mxCell id="2c-yum_lAbNcvrNoENY4-125" value="" style="line;html=1;strokeWidth=1;align=left;verticalAlign=middle;spacingTop=-1;spacingLeft=3;spacingRight=3;rotatable=0;labelPosition=right;points=[];portConstraint=eastwest;" parent="2c-yum_lAbNcvrNoENY4-123" vertex="1">
          <mxGeometry y="60" width="190" height="8" as="geometry" />
        </mxCell>
        <mxCell id="2c-yum_lAbNcvrNoENY4-126" value="- determineStation(int): String&#xa;- ticketsIssued(int): int " style="text;align=left;verticalAlign=top;spacingLeft=4;spacingRight=4;overflow=hidden;rotatable=0;points=[[0,0.5],[1,0.5]];portConstraint=eastwest;rounded=0;shadow=0;html=0;fontSize=11;" parent="2c-yum_lAbNcvrNoENY4-123" vertex="1">
          <mxGeometry y="68" width="190" height="32" as="geometry" />
        </mxCell>
        <mxCell id="O42WBwluvv-HjwbEkJu6-59" style="edgeStyle=orthogonalEdgeStyle;rounded=0;orthogonalLoop=1;jettySize=auto;html=1;entryX=0.5;entryY=0;entryDx=0;entryDy=0;startArrow=none;startFill=0;endArrow=none;endFill=0;startSize=12;endSize=11;" edge="1" parent="WIyWlLk6GJQsqaUBKTNV-1" source="2c-yum_lAbNcvrNoENY4-131" target="2c-yum_lAbNcvrNoENY4-135">
          <mxGeometry relative="1" as="geometry">
            <Array as="points">
              <mxPoint x="-430" y="590" />
              <mxPoint x="-90" y="590" />
            </Array>
          </mxGeometry>
        </mxCell>
        <mxCell id="2c-yum_lAbNcvrNoENY4-131" value="Pass" style="swimlane;fontStyle=1;align=center;verticalAlign=top;childLayout=stackLayout;horizontal=1;startSize=26;horizontalStack=0;resizeParent=1;resizeLast=0;collapsible=1;marginBottom=0;rounded=0;shadow=0;strokeWidth=1;" parent="WIyWlLk6GJQsqaUBKTNV-1" vertex="1">
          <mxGeometry x="-550" y="610" width="240" height="180" as="geometry">
            <mxRectangle x="230" y="140" width="160" height="26" as="alternateBounds" />
          </mxGeometry>
        </mxCell>
        <mxCell id="2c-yum_lAbNcvrNoENY4-132" value="- type: String&#xa;- duration: String" style="text;align=left;verticalAlign=top;spacingLeft=4;spacingRight=4;overflow=hidden;rotatable=0;points=[[0,0.5],[1,0.5]];portConstraint=eastwest;rounded=0;shadow=0;html=0;fontSize=11;" parent="2c-yum_lAbNcvrNoENY4-131" vertex="1">
          <mxGeometry y="26" width="240" height="41" as="geometry" />
        </mxCell>
        <mxCell id="2c-yum_lAbNcvrNoENY4-133" value="" style="line;html=1;strokeWidth=1;align=left;verticalAlign=middle;spacingTop=-1;spacingLeft=3;spacingRight=3;rotatable=0;labelPosition=right;points=[];portConstraint=eastwest;" parent="2c-yum_lAbNcvrNoENY4-131" vertex="1">
          <mxGeometry y="67" width="240" height="8" as="geometry" />
        </mxCell>
        <mxCell id="2c-yum_lAbNcvrNoENY4-134" value="- rollEntranceFee(int): void &#xa;- purchaseInPerson(Pass): int &#xa;- purchaseAnnualPass(): object &#xa;- purchaseSeniorPass(int, int): object &#xa;- obtainMilitaryPass(String): object &#xa;- obtainAccessPass(String): object &#xa;- obtainVolunteerPass(int, boolean): object " style="text;align=left;verticalAlign=top;spacingLeft=4;spacingRight=4;overflow=hidden;rotatable=0;points=[[0,0.5],[1,0.5]];portConstraint=eastwest;rounded=0;shadow=0;html=0;fontSize=11;" parent="2c-yum_lAbNcvrNoENY4-131" vertex="1">
          <mxGeometry y="75" width="240" height="105" as="geometry" />
        </mxCell>
        <mxCell id="2c-yum_lAbNcvrNoENY4-135" value="Permit" style="swimlane;fontStyle=1;align=center;verticalAlign=top;childLayout=stackLayout;horizontal=1;startSize=26;horizontalStack=0;resizeParent=1;resizeLast=0;collapsible=1;marginBottom=0;rounded=0;shadow=0;strokeWidth=1;" parent="WIyWlLk6GJQsqaUBKTNV-1" vertex="1">
          <mxGeometry x="-210" y="610" width="240" height="180" as="geometry">
            <mxRectangle x="230" y="140" width="160" height="26" as="alternateBounds" />
          </mxGeometry>
        </mxCell>
        <mxCell id="2c-yum_lAbNcvrNoENY4-136" value="- type: String&#xa;- tripDuration: int " style="text;align=left;verticalAlign=top;spacingLeft=4;spacingRight=4;overflow=hidden;rotatable=0;points=[[0,0.5],[1,0.5]];portConstraint=eastwest;rounded=0;shadow=0;html=0;fontSize=11;" parent="2c-yum_lAbNcvrNoENY4-135" vertex="1">
          <mxGeometry y="26" width="240" height="41" as="geometry" />
        </mxCell>
        <mxCell id="2c-yum_lAbNcvrNoENY4-137" value="" style="line;html=1;strokeWidth=1;align=left;verticalAlign=middle;spacingTop=-1;spacingLeft=3;spacingRight=3;rotatable=0;labelPosition=right;points=[];portConstraint=eastwest;" parent="2c-yum_lAbNcvrNoENY4-135" vertex="1">
          <mxGeometry y="67" width="240" height="8" as="geometry" />
        </mxCell>
        <mxCell id="2c-yum_lAbNcvrNoENY4-138" value="+ purchaseWildernessPermit(date, int): object &#xa;+ purchaseTrailPermit(date): object &#xa;+ purchaseEntryPermit(int) : object " style="text;align=left;verticalAlign=top;spacingLeft=4;spacingRight=4;overflow=hidden;rotatable=0;points=[[0,0.5],[1,0.5]];portConstraint=eastwest;rounded=0;shadow=0;html=0;fontSize=11;" parent="2c-yum_lAbNcvrNoENY4-135" vertex="1">
          <mxGeometry y="75" width="240" height="105" as="geometry" />
        </mxCell>
        <mxCell id="2c-yum_lAbNcvrNoENY4-161" value="*" style="text;html=1;align=center;verticalAlign=middle;resizable=0;points=[];autosize=1;strokeColor=none;fillColor=none;fontSize=11;" parent="WIyWlLk6GJQsqaUBKTNV-1" vertex="1">
          <mxGeometry x="710" y="-463" width="20" height="20" as="geometry" />
        </mxCell>
        <mxCell id="2c-yum_lAbNcvrNoENY4-162" value="contains" style="text;html=1;align=center;verticalAlign=middle;resizable=0;points=[];autosize=1;strokeColor=none;fillColor=none;fontSize=11;" parent="WIyWlLk6GJQsqaUBKTNV-1" vertex="1">
          <mxGeometry x="415" y="-464" width="60" height="20" as="geometry" />
        </mxCell>
        <mxCell id="2c-yum_lAbNcvrNoENY4-163" value="1" style="text;html=1;align=center;verticalAlign=middle;resizable=0;points=[];autosize=1;strokeColor=none;fillColor=none;fontSize=11;" parent="WIyWlLk6GJQsqaUBKTNV-1" vertex="1">
          <mxGeometry x="100" y="-464" width="20" height="20" as="geometry" />
        </mxCell>
        <mxCell id="2c-yum_lAbNcvrNoENY4-164" value="1" style="text;html=1;align=center;verticalAlign=middle;resizable=0;points=[];autosize=1;strokeColor=none;fillColor=none;fontSize=11;" parent="WIyWlLk6GJQsqaUBKTNV-1" vertex="1">
          <mxGeometry x="100" y="-334" width="20" height="20" as="geometry" />
        </mxCell>
        <mxCell id="2c-yum_lAbNcvrNoENY4-165" value="1..*" style="text;html=1;align=center;verticalAlign=middle;resizable=0;points=[];autosize=1;strokeColor=none;fillColor=none;fontSize=11;" parent="WIyWlLk6GJQsqaUBKTNV-1" vertex="1">
          <mxGeometry x="720" y="-251" width="30" height="20" as="geometry" />
        </mxCell>
        <mxCell id="2c-yum_lAbNcvrNoENY4-166" value="contains" style="text;html=1;align=center;verticalAlign=middle;resizable=0;points=[];autosize=1;strokeColor=none;fillColor=none;fontSize=11;" parent="WIyWlLk6GJQsqaUBKTNV-1" vertex="1">
          <mxGeometry x="415" y="-336" width="60" height="20" as="geometry" />
        </mxCell>
        <mxCell id="2c-yum_lAbNcvrNoENY4-170" value="purchases" style="text;html=1;align=center;verticalAlign=middle;resizable=0;points=[];autosize=1;strokeColor=none;fillColor=none;fontSize=11;" parent="WIyWlLk6GJQsqaUBKTNV-1" vertex="1">
          <mxGeometry x="-250" y="330" width="70" height="20" as="geometry" />
        </mxCell>
        <mxCell id="2c-yum_lAbNcvrNoENY4-171" value="1" style="text;html=1;align=center;verticalAlign=middle;resizable=0;points=[];autosize=1;strokeColor=none;fillColor=none;fontSize=11;" parent="WIyWlLk6GJQsqaUBKTNV-1" vertex="1">
          <mxGeometry x="-251" y="249" width="20" height="20" as="geometry" />
        </mxCell>
        <mxCell id="2c-yum_lAbNcvrNoENY4-172" value="1..*" style="text;html=1;align=center;verticalAlign=middle;resizable=0;points=[];autosize=1;strokeColor=none;fillColor=none;fontSize=11;" parent="WIyWlLk6GJQsqaUBKTNV-1" vertex="1">
          <mxGeometry x="-253" y="371" width="30" height="20" as="geometry" />
        </mxCell>
        <mxCell id="O42WBwluvv-HjwbEkJu6-8" value="Person" style="swimlane;fontStyle=3;align=center;verticalAlign=top;childLayout=stackLayout;horizontal=1;startSize=26;horizontalStack=0;resizeParent=1;resizeParentMax=0;resizeLast=0;collapsible=1;marginBottom=0;" vertex="1" parent="WIyWlLk6GJQsqaUBKTNV-1">
          <mxGeometry x="-130" y="-180" width="160" height="100" as="geometry" />
        </mxCell>
        <mxCell id="O42WBwluvv-HjwbEkJu6-9" value="- name: String" style="text;strokeColor=none;fillColor=none;align=left;verticalAlign=top;spacingLeft=4;spacingRight=4;overflow=hidden;rotatable=0;points=[[0,0.5],[1,0.5]];portConstraint=eastwest;" vertex="1" parent="O42WBwluvv-HjwbEkJu6-8">
          <mxGeometry y="26" width="160" height="34" as="geometry" />
        </mxCell>
        <mxCell id="O42WBwluvv-HjwbEkJu6-10" value="" style="line;strokeWidth=1;fillColor=none;align=left;verticalAlign=middle;spacingTop=-1;spacingLeft=3;spacingRight=3;rotatable=0;labelPosition=right;points=[];portConstraint=eastwest;" vertex="1" parent="O42WBwluvv-HjwbEkJu6-8">
          <mxGeometry y="60" width="160" height="8" as="geometry" />
        </mxCell>
        <mxCell id="O42WBwluvv-HjwbEkJu6-11" value=" " style="text;strokeColor=none;fillColor=none;align=left;verticalAlign=top;spacingLeft=4;spacingRight=4;overflow=hidden;rotatable=0;points=[[0,0.5],[1,0.5]];portConstraint=eastwest;" vertex="1" parent="O42WBwluvv-HjwbEkJu6-8">
          <mxGeometry y="68" width="160" height="32" as="geometry" />
        </mxCell>
        <mxCell id="O42WBwluvv-HjwbEkJu6-20" value="Admin" style="swimlane;fontStyle=1;align=center;verticalAlign=top;childLayout=stackLayout;horizontal=1;startSize=26;horizontalStack=0;resizeParent=1;resizeLast=0;collapsible=1;marginBottom=0;rounded=0;shadow=0;strokeWidth=1;" vertex="1" parent="WIyWlLk6GJQsqaUBKTNV-1">
          <mxGeometry x="170" y="275.5" width="190" height="104.5" as="geometry">
            <mxRectangle x="230" y="140" width="160" height="26" as="alternateBounds" />
          </mxGeometry>
        </mxCell>
        <mxCell id="O42WBwluvv-HjwbEkJu6-21" value="- positionTitle: String" style="text;align=left;verticalAlign=top;spacingLeft=4;spacingRight=4;overflow=hidden;rotatable=0;points=[[0,0.5],[1,0.5]];portConstraint=eastwest;rounded=0;shadow=0;html=0;fontSize=11;" vertex="1" parent="O42WBwluvv-HjwbEkJu6-20">
          <mxGeometry y="26" width="190" height="34" as="geometry" />
        </mxCell>
        <mxCell id="O42WBwluvv-HjwbEkJu6-22" value="" style="line;html=1;strokeWidth=1;align=left;verticalAlign=middle;spacingTop=-1;spacingLeft=3;spacingRight=3;rotatable=0;labelPosition=right;points=[];portConstraint=eastwest;" vertex="1" parent="O42WBwluvv-HjwbEkJu6-20">
          <mxGeometry y="60" width="190" height="8" as="geometry" />
        </mxCell>
        <mxCell id="O42WBwluvv-HjwbEkJu6-23" value="+ scheduleEvent(): date" style="text;align=left;verticalAlign=top;spacingLeft=4;spacingRight=4;overflow=hidden;rotatable=0;points=[[0,0.5],[1,0.5]];portConstraint=eastwest;rounded=0;shadow=0;html=0;fontSize=11;" vertex="1" parent="O42WBwluvv-HjwbEkJu6-20">
          <mxGeometry y="68" width="190" height="32" as="geometry" />
        </mxCell>
        <mxCell id="O42WBwluvv-HjwbEkJu6-24" value="Maintenance" style="swimlane;fontStyle=1;align=center;verticalAlign=top;childLayout=stackLayout;horizontal=1;startSize=26;horizontalStack=0;resizeParent=1;resizeLast=0;collapsible=1;marginBottom=0;rounded=0;shadow=0;strokeWidth=1;" vertex="1" parent="WIyWlLk6GJQsqaUBKTNV-1">
          <mxGeometry x="-80" y="430" width="190" height="104.5" as="geometry">
            <mxRectangle x="230" y="140" width="160" height="26" as="alternateBounds" />
          </mxGeometry>
        </mxCell>
        <mxCell id="O42WBwluvv-HjwbEkJu6-25" value="- department: String" style="text;align=left;verticalAlign=top;spacingLeft=4;spacingRight=4;overflow=hidden;rotatable=0;points=[[0,0.5],[1,0.5]];portConstraint=eastwest;rounded=0;shadow=0;html=0;fontSize=11;" vertex="1" parent="O42WBwluvv-HjwbEkJu6-24">
          <mxGeometry y="26" width="190" height="34" as="geometry" />
        </mxCell>
        <mxCell id="O42WBwluvv-HjwbEkJu6-26" value="" style="line;html=1;strokeWidth=1;align=left;verticalAlign=middle;spacingTop=-1;spacingLeft=3;spacingRight=3;rotatable=0;labelPosition=right;points=[];portConstraint=eastwest;" vertex="1" parent="O42WBwluvv-HjwbEkJu6-24">
          <mxGeometry y="60" width="190" height="8" as="geometry" />
        </mxCell>
        <mxCell id="O42WBwluvv-HjwbEkJu6-27" value="+ upkeepNeeded(String): boolean" style="text;align=left;verticalAlign=top;spacingLeft=4;spacingRight=4;overflow=hidden;rotatable=0;points=[[0,0.5],[1,0.5]];portConstraint=eastwest;rounded=0;shadow=0;html=0;fontSize=11;" vertex="1" parent="O42WBwluvv-HjwbEkJu6-24">
          <mxGeometry y="68" width="190" height="32" as="geometry" />
        </mxCell>
        <mxCell id="O42WBwluvv-HjwbEkJu6-28" value="Guide" style="swimlane;fontStyle=1;align=center;verticalAlign=top;childLayout=stackLayout;horizontal=1;startSize=26;horizontalStack=0;resizeParent=1;resizeLast=0;collapsible=1;marginBottom=0;rounded=0;shadow=0;strokeWidth=1;" vertex="1" parent="WIyWlLk6GJQsqaUBKTNV-1">
          <mxGeometry x="170" y="430" width="190" height="104.5" as="geometry">
            <mxRectangle x="230" y="140" width="160" height="26" as="alternateBounds" />
          </mxGeometry>
        </mxCell>
        <mxCell id="O42WBwluvv-HjwbEkJu6-29" value="- positionTitle: String" style="text;align=left;verticalAlign=top;spacingLeft=4;spacingRight=4;overflow=hidden;rotatable=0;points=[[0,0.5],[1,0.5]];portConstraint=eastwest;rounded=0;shadow=0;html=0;fontSize=11;" vertex="1" parent="O42WBwluvv-HjwbEkJu6-28">
          <mxGeometry y="26" width="190" height="34" as="geometry" />
        </mxCell>
        <mxCell id="O42WBwluvv-HjwbEkJu6-30" value="" style="line;html=1;strokeWidth=1;align=left;verticalAlign=middle;spacingTop=-1;spacingLeft=3;spacingRight=3;rotatable=0;labelPosition=right;points=[];portConstraint=eastwest;" vertex="1" parent="O42WBwluvv-HjwbEkJu6-28">
          <mxGeometry y="60" width="190" height="8" as="geometry" />
        </mxCell>
        <mxCell id="O42WBwluvv-HjwbEkJu6-31" value="+ guideTour(List &lt;Visitors&gt;): boolean" style="text;align=left;verticalAlign=top;spacingLeft=4;spacingRight=4;overflow=hidden;rotatable=0;points=[[0,0.5],[1,0.5]];portConstraint=eastwest;rounded=0;shadow=0;html=0;fontSize=11;" vertex="1" parent="O42WBwluvv-HjwbEkJu6-28">
          <mxGeometry y="68" width="190" height="32" as="geometry" />
        </mxCell>
        <mxCell id="O42WBwluvv-HjwbEkJu6-33" style="edgeStyle=orthogonalEdgeStyle;rounded=0;orthogonalLoop=1;jettySize=auto;html=1;entryX=1;entryY=0.5;entryDx=0;entryDy=0;endArrow=none;endFill=0;startSize=12;endSize=11;" edge="1" parent="WIyWlLk6GJQsqaUBKTNV-1" source="O42WBwluvv-HjwbEkJu6-29" target="O42WBwluvv-HjwbEkJu6-25">
          <mxGeometry relative="1" as="geometry" />
        </mxCell>
        <mxCell id="O42WBwluvv-HjwbEkJu6-57" style="edgeStyle=orthogonalEdgeStyle;rounded=0;orthogonalLoop=1;jettySize=auto;html=1;startArrow=none;startFill=0;endArrow=none;endFill=0;startSize=12;endSize=11;entryX=0.5;entryY=0;entryDx=0;entryDy=0;" edge="1" parent="WIyWlLk6GJQsqaUBKTNV-1" source="O42WBwluvv-HjwbEkJu6-42" target="O42WBwluvv-HjwbEkJu6-50">
          <mxGeometry relative="1" as="geometry">
            <mxPoint x="445" y="60" as="targetPoint" />
            <Array as="points">
              <mxPoint x="445" y="60" />
              <mxPoint x="1000" y="60" />
            </Array>
          </mxGeometry>
        </mxCell>
        <mxCell id="O42WBwluvv-HjwbEkJu6-42" value="Campground" style="swimlane;fontStyle=1;align=center;verticalAlign=top;childLayout=stackLayout;horizontal=1;startSize=26;horizontalStack=0;resizeParent=1;resizeLast=0;collapsible=1;marginBottom=0;rounded=0;shadow=0;strokeWidth=1;" vertex="1" parent="WIyWlLk6GJQsqaUBKTNV-1">
          <mxGeometry x="320" y="130" width="250" height="104.5" as="geometry">
            <mxRectangle x="230" y="140" width="160" height="26" as="alternateBounds" />
          </mxGeometry>
        </mxCell>
        <mxCell id="O42WBwluvv-HjwbEkJu6-43" value="- name: String&#xa;- siteId: int" style="text;align=left;verticalAlign=top;spacingLeft=4;spacingRight=4;overflow=hidden;rotatable=0;points=[[0,0.5],[1,0.5]];portConstraint=eastwest;rounded=0;shadow=0;html=0;fontSize=11;" vertex="1" parent="O42WBwluvv-HjwbEkJu6-42">
          <mxGeometry y="26" width="250" height="34" as="geometry" />
        </mxCell>
        <mxCell id="O42WBwluvv-HjwbEkJu6-44" value="" style="line;html=1;strokeWidth=1;align=left;verticalAlign=middle;spacingTop=-1;spacingLeft=3;spacingRight=3;rotatable=0;labelPosition=right;points=[];portConstraint=eastwest;" vertex="1" parent="O42WBwluvv-HjwbEkJu6-42">
          <mxGeometry y="60" width="250" height="8" as="geometry" />
        </mxCell>
        <mxCell id="O42WBwluvv-HjwbEkJu6-45" value="- checkAmenities(String): ArrayList&lt;amenities&gt;" style="text;align=left;verticalAlign=top;spacingLeft=4;spacingRight=4;overflow=hidden;rotatable=0;points=[[0,0.5],[1,0.5]];portConstraint=eastwest;rounded=0;shadow=0;html=0;fontSize=11;" vertex="1" parent="O42WBwluvv-HjwbEkJu6-42">
          <mxGeometry y="68" width="250" height="32" as="geometry" />
        </mxCell>
        <mxCell id="O42WBwluvv-HjwbEkJu6-46" value="Cabin" style="swimlane;fontStyle=1;align=center;verticalAlign=top;childLayout=stackLayout;horizontal=1;startSize=26;horizontalStack=0;resizeParent=1;resizeLast=0;collapsible=1;marginBottom=0;rounded=0;shadow=0;strokeWidth=1;" vertex="1" parent="WIyWlLk6GJQsqaUBKTNV-1">
          <mxGeometry x="601" y="130" width="249" height="104.5" as="geometry">
            <mxRectangle x="230" y="140" width="160" height="26" as="alternateBounds" />
          </mxGeometry>
        </mxCell>
        <mxCell id="O42WBwluvv-HjwbEkJu6-47" value="- name: String&#xa;- cabinId: int" style="text;align=left;verticalAlign=top;spacingLeft=4;spacingRight=4;overflow=hidden;rotatable=0;points=[[0,0.5],[1,0.5]];portConstraint=eastwest;rounded=0;shadow=0;html=0;fontSize=11;" vertex="1" parent="O42WBwluvv-HjwbEkJu6-46">
          <mxGeometry y="26" width="249" height="34" as="geometry" />
        </mxCell>
        <mxCell id="O42WBwluvv-HjwbEkJu6-48" value="" style="line;html=1;strokeWidth=1;align=left;verticalAlign=middle;spacingTop=-1;spacingLeft=3;spacingRight=3;rotatable=0;labelPosition=right;points=[];portConstraint=eastwest;" vertex="1" parent="O42WBwluvv-HjwbEkJu6-46">
          <mxGeometry y="60" width="249" height="8" as="geometry" />
        </mxCell>
        <mxCell id="O42WBwluvv-HjwbEkJu6-49" value="- checkAmenities(String): ArrayList&lt;amenities&gt;" style="text;align=left;verticalAlign=top;spacingLeft=4;spacingRight=4;overflow=hidden;rotatable=0;points=[[0,0.5],[1,0.5]];portConstraint=eastwest;rounded=0;shadow=0;html=0;fontSize=11;" vertex="1" parent="O42WBwluvv-HjwbEkJu6-46">
          <mxGeometry y="68" width="249" height="32" as="geometry" />
        </mxCell>
        <mxCell id="O42WBwluvv-HjwbEkJu6-50" value="Hotel" style="swimlane;fontStyle=1;align=center;verticalAlign=top;childLayout=stackLayout;horizontal=1;startSize=26;horizontalStack=0;resizeParent=1;resizeLast=0;collapsible=1;marginBottom=0;rounded=0;shadow=0;strokeWidth=1;" vertex="1" parent="WIyWlLk6GJQsqaUBKTNV-1">
          <mxGeometry x="880" y="130" width="240" height="104.5" as="geometry">
            <mxRectangle x="230" y="140" width="160" height="26" as="alternateBounds" />
          </mxGeometry>
        </mxCell>
        <mxCell id="O42WBwluvv-HjwbEkJu6-51" value="- name: String&#xa;- roomId: int" style="text;align=left;verticalAlign=top;spacingLeft=4;spacingRight=4;overflow=hidden;rotatable=0;points=[[0,0.5],[1,0.5]];portConstraint=eastwest;rounded=0;shadow=0;html=0;fontSize=11;" vertex="1" parent="O42WBwluvv-HjwbEkJu6-50">
          <mxGeometry y="26" width="240" height="34" as="geometry" />
        </mxCell>
        <mxCell id="O42WBwluvv-HjwbEkJu6-52" value="" style="line;html=1;strokeWidth=1;align=left;verticalAlign=middle;spacingTop=-1;spacingLeft=3;spacingRight=3;rotatable=0;labelPosition=right;points=[];portConstraint=eastwest;" vertex="1" parent="O42WBwluvv-HjwbEkJu6-50">
          <mxGeometry y="60" width="240" height="8" as="geometry" />
        </mxCell>
        <mxCell id="O42WBwluvv-HjwbEkJu6-53" value="- checkAmenities(String): ArrayList&lt;amenities&gt;" style="text;align=left;verticalAlign=top;spacingLeft=4;spacingRight=4;overflow=hidden;rotatable=0;points=[[0,0.5],[1,0.5]];portConstraint=eastwest;rounded=0;shadow=0;html=0;fontSize=11;" vertex="1" parent="O42WBwluvv-HjwbEkJu6-50">
          <mxGeometry y="68" width="240" height="32" as="geometry" />
        </mxCell>
        <mxCell id="O42WBwluvv-HjwbEkJu6-75" value="employs" style="text;html=1;align=center;verticalAlign=middle;resizable=0;points=[];autosize=1;strokeColor=none;fillColor=none;fontSize=11;" vertex="1" parent="WIyWlLk6GJQsqaUBKTNV-1">
          <mxGeometry x="80" y="-150" width="60" height="20" as="geometry" />
        </mxCell>
        <mxCell id="O42WBwluvv-HjwbEkJu6-76" value="1" style="text;html=1;align=center;verticalAlign=middle;resizable=0;points=[];autosize=1;strokeColor=none;fillColor=none;fontSize=11;" vertex="1" parent="WIyWlLk6GJQsqaUBKTNV-1">
          <mxGeometry x="60" y="-290" width="20" height="20" as="geometry" />
        </mxCell>
        <mxCell id="O42WBwluvv-HjwbEkJu6-77" value="*" style="text;html=1;align=center;verticalAlign=middle;resizable=0;points=[];autosize=1;strokeColor=none;fillColor=none;fontSize=11;" vertex="1" parent="WIyWlLk6GJQsqaUBKTNV-1">
          <mxGeometry x="160" y="10" width="20" height="20" as="geometry" />
        </mxCell>
        <mxCell id="O42WBwluvv-HjwbEkJu6-79" value="visits" style="text;html=1;align=center;verticalAlign=middle;resizable=0;points=[];autosize=1;strokeColor=none;fillColor=none;fontSize=11;" vertex="1" parent="WIyWlLk6GJQsqaUBKTNV-1">
          <mxGeometry x="-213" y="-354" width="40" height="20" as="geometry" />
        </mxCell>
        <mxCell id="O42WBwluvv-HjwbEkJu6-80" value="1" style="text;html=1;align=center;verticalAlign=middle;resizable=0;points=[];autosize=1;strokeColor=none;fillColor=none;fontSize=11;" vertex="1" parent="WIyWlLk6GJQsqaUBKTNV-1">
          <mxGeometry x="-310" y="10" width="20" height="20" as="geometry" />
        </mxCell>
        <mxCell id="O42WBwluvv-HjwbEkJu6-81" value="0..*" style="text;html=1;align=center;verticalAlign=middle;resizable=0;points=[];autosize=1;strokeColor=none;fillColor=none;fontSize=11;" vertex="1" parent="WIyWlLk6GJQsqaUBKTNV-1">
          <mxGeometry x="-105" y="-354" width="30" height="20" as="geometry" />
        </mxCell>
      </root>
    </mxGraphModel>
  </diagram>
</mxfile>
